<?xml version="1.0" encoding="UTF-8"?>
<svg width="16px" height="16px" viewBox="0 0 16 16" version="1.1" xmlns="http://www.w3.org/2000/svg" xmlns:xlink="http://www.w3.org/1999/xlink">
    <!-- Generator: Sketch 41.1 (35376) - http://www.bohemiancoding.com/sketch -->
    <title>Notification</title>
    <desc>Created with Sketch.</desc>
    <defs></defs>
    <g id="Layouts" stroke="none" stroke-width="1" fill="none" fill-rule="evenodd">
        <g id="FEED-(D)" transform="translate(-1117.000000, -17.000000)">
            <g id="Top-Nav">
                <g id="Notification" transform="translate(1117.000000, 17.000000)">
                    <g id="Notifications" fill="#FFFFFF">
                        <path d="M14.0774436,22.4545455 L9.89323308,22.4545455 C9.05639098,22.4545455 8.33909774,23.4 8.81729323,24.2272727 C9.53458647,25.2909091 10.7300752,26 12.0451128,26 C13.3601504,26 14.5556391,25.2909091 15.1533835,24.2272727 C15.6315789,23.4 15.0338346,22.4545455 14.0774436,22.4545455 Z" id="Shape"></path>
                        <path d="M23.7609023,18.5545455 L23.2827068,17.9636364 C21.3699248,15.4818182 20.4135338,12.5272727 20.4135338,9.45454545 L20.4135338,8.62727273 C20.4135338,4.37272727 17.3052632,0.590909091 13.0015038,0.118181818 C7.98045113,-0.472727273 3.67669173,3.42727273 3.67669173,8.27272727 L3.67669173,9.45454545 C3.67669173,12.5272727 2.72030075,15.4818182 0.807518797,17.9636364 L0.329323308,18.5545455 C0.0902255639,18.7909091 -0.0293233083,19.2636364 0.0902255639,19.5 C0.44887218,20.5636364 1.40526316,21.2727273 2.48120301,21.2727273 L21.6090226,21.2727273 C22.6849624,21.2727273 23.6413534,20.5636364 23.8804511,19.5 C24,19.1454545 23.8804511,18.7909091 23.7609023,18.5545455 Z" id="Shape"></path>
                    </g>
                    <circle id="Notification-Circle" fill="#9075F3" cx="12.5" cy="4.5" r="3.5"></circle>
                </g>
            </g>
        </g>
    </g>
</svg>