<?xml version="1.0" encoding="UTF-8"?>
<svg width="17px" height="19px" viewBox="0 0 17 19" version="1.1" xmlns="http://www.w3.org/2000/svg" xmlns:xlink="http://www.w3.org/1999/xlink">
    <!-- Generator: Sketch 41.1 (35376) - http://www.bohemiancoding.com/sketch -->
    <title>Project</title>
    <desc>Created with Sketch.</desc>
    <defs></defs>
    <g id="Layouts" stroke="none" stroke-width="1" fill="none" fill-rule="evenodd">
        <g id="FEED-(D)" transform="translate(-968.000000, -15.000000)" fill="#9075F3">
            <g id="Top-Nav">
                <g id="Project" transform="translate(968.000000, 15.500000)">
                    <path d="M6.56000001,6.68977272 L6.56000001,15.684224 L6.55990025,15.6841641 C6.56852485,16.5067097 6.01821273,17.4342005 4.87849533,18.0170112 C3.29562313,18.8264345 1.63112869,18.4314092 1.02188045,17.4967672 C0.412633374,16.5621252 0.858633653,15.0878666 2.44150469,14.2784433 C3.50602277,13.7340872 4.60745901,13.7344886 5.40000001,14.0774202 L5.40000001,6.92045454 L5.40000001,2.30681818 L17,0 L17,1.15340909 L17,4.61363636 L17,14.5334897 L16.9999269,14.5335186 C17.0072883,15.3553837 16.4569332,16.2814466 15.3184953,16.8636021 C13.7356231,17.6730254 12.0711287,17.2780001 11.4618804,16.3433581 C10.8526334,15.4087161 11.2986336,13.9344575 12.8815047,13.1250342 C13.9460228,12.5806782 15.047459,12.5810795 15.84,12.9240111 L15.84,4.84431818 L6.56000001,6.68977272 Z" id="Rectangle-233"></path>
                </g>
            </g>
        </g>
    </g>
</svg>