<?xml version="1.0" encoding="UTF-8"?>
<svg width="20px" height="17px" viewBox="0 0 20 17" version="1.1" xmlns="http://www.w3.org/2000/svg" xmlns:xlink="http://www.w3.org/1999/xlink">
    <!-- Generator: Sketch 41.1 (35376) - http://www.bohemiancoding.com/sketch -->
    <title>Session</title>
    <desc>Created with Sketch.</desc>
    <defs></defs>
    <g id="Layouts" stroke="none" stroke-width="1" fill="none" fill-rule="evenodd">
        <g id="FEED-(D)" transform="translate(-841.000000, -16.000000)">
            <g id="Top-Nav">
                <g id="Session" transform="translate(841.000000, 17.592593)">
                    <path d="M3.88644508,10.612356 C4.03183043,-2.88284251 22.7608848,-4.07650448 23.0649588,10.5316901" id="Shape" stroke="#9075F3" stroke-width="1.8184"></path>
                    <path d="M4.75210558,10.2868118 L2.37652791,10.2868118 C1.06900995,10.2868118 0,11.3671575 0,12.6885403 L0,17.3585147 C0,18.6789373 1.06900995,19.759283 2.37652791,19.759283 L4.75210558,19.759283 L4.75210558,10.2868118 L4.75210558,10.2868118 Z" id="Shape" fill="#9075F3" fill-rule="evenodd"></path>
                    <path d="M22.2030992,10.4913572 L24.5796271,10.4913572 C25.8861948,10.4913572 26.956155,11.5717029 26.956155,12.8921255 L26.956155,17.5620999 C26.956155,18.8825224 25.887145,19.9628681 24.5796271,19.9628681 L22.2030992,19.9628681 L22.2030992,10.4913572 Z" id="Shape" fill="#9075F3" fill-rule="evenodd"></path>
                </g>
            </g>
        </g>
    </g>
</svg>